@startuml "Classes"

top to bottom direction

class NovaClasse {
  - foo bar
}

class Alerta <<abstract>> {
  - number timerHandler
  + Date horario
  + boolean absoluto
  + string descricao
  + cancelar()
  + ajustar(horAbs)
  constructor(desc, horAbs)
}

note left of Alerta : Alerta programado.\n\nPossui uma descrição que é\nexibida com a conclusão do\ntimer, na forma de um alerta.

class AlertaRelativo {
  constructor(desc, horExpr)
  + ajustar(horExpr)
  + string: getTempoRestante()
}

class ClassFim {
  - int cont
}

Alerta <|-- AlertaRelativo
Alerta <|-- AlertaAbsoluto

@enduml
